<?xml version="1.0" encoding="utf-8"?>
<!-- Generator: Adobe Illustrator 19.2.1, SVG Export Plug-In . SVG Version: 6.00 Build 0)  -->
<svg version="1.1" id="layer" xmlns="http://www.w3.org/2000/svg" xmlns:xlink="http://www.w3.org/1999/xlink" x="0px" y="0px"
	 viewBox="0 0 652 652" style="enable-background:new 0 0 652 652;" xml:space="preserve" >
<style type="text/css">
	.st0{fill:#FFC425;}
</style>
<path d="M184.2,282.6v-38.3h0.8l25.5,29.4v-29.4h3.8v38.3h-0.9l-25.3-29v29H184.2z M225.8,265.6c0.7-2.6,1.9-4.6,3.3-5.9
	c2-1.8,4.4-2.7,7.2-2.7c1.7,0,3.3,0.4,4.8,1.1c1.5,0.7,2.8,1.6,3.7,2.8c0.9,1.2,1.6,2.7,2.1,4.7H225.8z M246.9,273.2
	c-1.1,1.9-2.1,3.2-3.1,4c-1,0.8-2.1,1.5-3.5,2c-1.4,0.5-2.8,0.8-4.2,0.8c-3,0-5.5-1.1-7.5-3.2c-2-2.1-3.1-4.8-3.2-8.1h25.5
	c0-3.9-1.1-7.1-3.1-9.7c-2.9-3.7-6.7-5.5-11.6-5.5c-4.7,0-8.4,1.8-11.2,5.4c-2.2,2.8-3.3,6-3.3,9.6c0,3.8,1.3,7.3,3.9,10.3
	c2.6,3,6.2,4.5,10.9,4.5c2.1,0,4-0.3,5.6-1c1.7-0.6,3.1-1.6,4.5-2.8c1.3-1.2,2.5-2.8,3.5-4.8L246.9,273.2 M266,282.6h0.7l9.1-20.3
	l9.1,20.3h0.7l12.3-28.4H294l-8.9,20.6l-9.1-20.6h-0.7l-9.1,20.6l-8.7-20.6h-3.8L266,282.6z M326.8,264.3v18.3h3.8v-18.3l12.1-20
	h-4.4l-9.7,15.8l-9.8-15.8h-4.4L326.8,264.3z M361.9,257.1c3,0,5.6,1.1,7.8,3.4c2.2,2.2,3.3,5,3.3,8.1c0,2-0.5,4-1.5,5.7
	c-1,1.8-2.3,3.1-4,4.1c-1.7,1-3.5,1.4-5.6,1.4c-2,0-3.9-0.5-5.6-1.4c-1.7-1-3-2.3-4-4.1c-1-1.8-1.5-3.7-1.5-5.7
	c0-3.2,1.1-5.9,3.3-8.1C356.2,258.2,358.9,257.1,361.9,257.1 M361.9,253.6c-4.4,0-8,1.6-10.9,4.8c-2.6,2.9-3.9,6.3-3.9,10.2
	c0,4,1.4,7.4,4.1,10.4c2.8,3,6.3,4.4,10.7,4.4c4.3,0,7.9-1.5,10.6-4.4c2.8-3,4.1-6.4,4.1-10.4c0-3.9-1.3-7.4-3.9-10.2
	C369.9,255.1,366.3,253.6,361.9,253.6 M382.1,282.6h3.7v-9.6c0-4.9,0.2-8.2,0.7-9.8c0.6-2.1,1.5-3.7,2.6-4.7c1.1-1,2.3-1.5,3.5-1.5
	c0.5,0,1.2,0.2,1.9,0.5l1.9-3.1c-1.1-0.6-2.2-1-3.2-1c-1.3,0-2.6,0.4-3.9,1.2c-1.2,0.8-2.4,2-3.5,3.7v-4.1h-3.7V282.6z M399.5,282.6
	h3.6v-12.8l14.3,12.8h5.1L406,267.8l15.6-13.5h-5.4l-13.1,11.4v-22.4h-3.6V282.6z M219.9,315.5c-1.8-2.6-4.2-4.5-7.1-6
	c-2.9-1.4-6.1-2.1-9.7-2.1c-5.9,0-10.9,1.9-14.8,5.7c-3.9,3.8-5.9,8.6-5.9,14.2c0,5.3,1.6,9.9,4.9,13.7c3.9,4.5,9.2,6.7,15.9,6.7
	c3.5,0,6.7-0.7,9.6-2c2.9-1.3,5.2-3.2,7.2-5.6l-3-2.3c-3.6,4.2-8.1,6.3-13.5,6.3c-4.9,0-8.9-1.6-12.1-4.7c-3.2-3.1-4.8-7-4.8-11.7
	c0-3.1,0.7-5.9,2.1-8.4c1.4-2.5,3.5-4.4,6.1-5.9c2.6-1.5,5.4-2.2,8.5-2.2c2.8,0,5.4,0.6,7.7,1.7c2.3,1.1,4.3,2.8,6,4.9L219.9,315.5
	 M240.4,321.2c3,0,5.6,1.1,7.8,3.4c2.2,2.2,3.3,5,3.3,8.1c0,2.1-0.5,4-1.5,5.7c-1,1.8-2.3,3.1-4,4.1c-1.7,1-3.5,1.4-5.6,1.4
	c-2,0-3.9-0.5-5.6-1.4c-1.7-1-3-2.3-4-4.1c-1-1.8-1.5-3.7-1.5-5.7c0-3.2,1.1-5.9,3.3-8.1C234.7,322.3,237.3,321.2,240.4,321.2
	 M240.4,317.6c-4.4,0-8,1.6-10.9,4.8c-2.6,2.9-3.9,6.3-3.9,10.2c0,4,1.4,7.4,4.1,10.4c2.8,3,6.3,4.4,10.7,4.4
	c4.3,0,7.9-1.5,10.6-4.4c2.8-3,4.1-6.4,4.1-10.4c0-3.9-1.3-7.4-3.9-10.2C248.4,319.2,244.7,317.6,240.4,317.6 M261.9,346.7h3.6v-12
	c0-3.5,0.4-6.2,1.1-7.9c0.7-1.7,1.8-3.1,3.3-4.1c1.5-1,3-1.5,4.7-1.5c1.5,0,2.7,0.4,3.8,1.1c1.1,0.7,1.8,1.7,2.2,2.9
	c0.4,1.2,0.6,3.6,0.6,7v14.5h3.6v-11.1c0-4.1,0.3-7,1-8.7c0.7-1.7,1.7-3.1,3.2-4.2c1.5-1,3.1-1.6,4.8-1.6c1.5,0,2.7,0.3,3.8,1
	c1,0.7,1.8,1.6,2.2,2.7c0.4,1.1,0.7,3.2,0.7,6.3v15.5h3.7v-15.5c0-3.5-0.4-6.2-1.1-8c-0.7-1.8-1.8-3.2-3.3-4.1
	c-1.5-1-3.2-1.5-5.2-1.5c-2.1,0-4.1,0.6-5.9,1.7c-1.8,1.2-3.3,2.8-4.5,5.1c-0.6-1.7-1.3-3-2-3.8c-0.8-0.9-1.8-1.6-3-2.1
	c-1.2-0.5-2.5-0.8-3.9-0.8c-2,0-4,0.6-5.8,1.7c-1.3,0.8-2.7,2.2-3.9,4v-4.9h-3.6V346.7z M312,346.7h3.6v-12c0-3.5,0.4-6.2,1.1-7.9
	c0.7-1.7,1.8-3.1,3.3-4.1c1.5-1,3-1.5,4.7-1.5c1.5,0,2.7,0.4,3.8,1.1c1.1,0.7,1.8,1.7,2.2,2.9c0.4,1.2,0.6,3.6,0.6,7v14.5h3.6v-11.1
	c0-4.1,0.3-7,1-8.7c0.7-1.7,1.7-3.1,3.2-4.2c1.5-1,3.1-1.6,4.8-1.6c1.5,0,2.7,0.3,3.8,1c1,0.7,1.8,1.6,2.2,2.7
	c0.4,1.1,0.7,3.2,0.7,6.3v15.5h3.7v-15.5c0-3.5-0.4-6.2-1.1-8c-0.7-1.8-1.8-3.2-3.3-4.1c-1.5-1-3.2-1.5-5.2-1.5
	c-2.1,0-4.1,0.6-5.9,1.7c-1.8,1.2-3.3,2.8-4.6,5.1c-0.6-1.7-1.3-3-2-3.8c-0.8-0.9-1.8-1.6-3-2.1c-1.2-0.5-2.5-0.8-3.9-0.8
	c-2,0-4,0.6-5.8,1.7c-1.3,0.8-2.6,2.2-3.9,4v-4.9H312V346.7z M361.6,332c0,4,0.5,7.1,1.4,9.1c0.9,2,2.3,3.6,4.1,4.7
	c1.9,1.1,4.2,1.7,6.9,1.7c2.8,0,5.1-0.6,6.9-1.7c1.8-1.1,3.2-2.7,4.1-4.7c0.9-2,1.4-4.9,1.4-8.8v-13.9h-3.7v13.2
	c0,3.5-0.2,5.9-0.6,7c-0.5,1.6-1.5,2.9-2.9,3.9c-1.4,1-3.2,1.5-5.2,1.5c-2,0-3.8-0.5-5.3-1.5c-1.5-1-2.5-2.4-3-4.1
	c-0.3-1.2-0.5-3.4-0.5-6.7v-13.2h-3.6V332z M394.5,346.7h3.6v-10.4c0-3.7,0.2-6.3,0.5-7.7c0.6-2.2,1.7-4,3.5-5.4
	c1.7-1.5,3.7-2.2,5.9-2.2c1.9,0,3.5,0.5,4.7,1.4c1.2,1,2,2.4,2.4,4.2c0.3,1.1,0.4,3.3,0.4,6.5v13.5h3.6v-14.6c0-3.9-0.4-6.7-1.2-8.5
	c-0.8-1.8-2-3.3-3.6-4.4c-1.6-1.1-3.5-1.6-5.6-1.6c-2.1,0-4,0.5-5.8,1.4c-1.8,1-3.4,2.4-4.9,4.4v-5.1h-3.6V346.7z M426.5,346.7h3.6
	v-28.4h-3.6V346.7z M428.3,306.7c-0.8,0-1.5,0.3-2.1,0.9c-0.6,0.6-0.9,1.3-0.9,2.1c0,0.8,0.3,1.5,0.9,2.1c0.6,0.6,1.3,0.9,2.1,0.9
	c0.8,0,1.5-0.3,2.1-0.9c0.6-0.6,0.9-1.3,0.9-2.1c0-0.8-0.3-1.5-0.9-2.1C429.9,307,429.2,306.7,428.3,306.7 M440.9,318.3h-5v3.2h5
	v25.2h3.6v-25.2h5.8v-3.2h-5.8v-10.5h-3.6V318.3z M464.4,344.6l-5.5,12.5h3.9l16.9-38.7h-3.9l-9.5,21.8l-9.7-21.8h-3.9L464.4,344.6z
	 M505.9,328.3c3.2,0,5.5,0.2,6.8,0.5c2,0.5,3.5,1.3,4.6,2.6c1.1,1.3,1.7,2.8,1.7,4.5c0,1.4-0.4,2.6-1.2,3.8c-0.8,1.2-1.8,2-3.1,2.6
	c-1.3,0.6-3.4,0.8-6.2,0.8h-4.8v-14.7H505.9z M508.1,312.1c2.7,0,4.6,0.5,5.9,1.5c1.2,1,1.8,2.4,1.8,4.1c0,1.3-0.4,2.5-1.1,3.6
	c-0.7,1.1-1.7,1.9-3,2.3c-1.3,0.5-3.2,0.7-5.9,0.7h-2.2v-12.3H508.1z M500,346.7h10.5c3.8,0,6.8-1.1,9.1-3.2
	c2.2-2.1,3.4-4.7,3.4-7.8c0-1.5-0.3-2.9-0.9-4.2c-0.6-1.3-1.4-2.4-2.5-3.3c-1.1-0.9-2.6-1.7-4.6-2.4c1.6-0.9,2.8-2,3.7-3.4
	c0.8-1.4,1.2-3,1.2-4.7c0-1.8-0.5-3.5-1.4-5c-0.9-1.5-2.2-2.6-3.9-3.3c-1.6-0.7-4-1.1-7-1.1H500V346.7z M543.6,321.1
	c3.2,0,5.8,1.1,8,3.3c2.2,2.2,3.2,4.9,3.2,8.2c0,2.2-0.5,4.1-1.5,5.8c-1,1.7-2.3,3.1-4.1,4.1c-1.8,1-3.7,1.5-5.7,1.5
	c-2,0-3.8-0.5-5.6-1.5c-1.7-1-3.1-2.4-4.1-4.3c-1-1.8-1.5-3.7-1.5-5.7c0-2,0.5-3.9,1.5-5.7c1-1.8,2.4-3.2,4.1-4.2
	C539.7,321.6,541.5,321.1,543.6,321.1 M554.6,318.3v5.2c-1.4-2-3.1-3.5-5-4.5c-1.9-1-4-1.5-6.3-1.5c-4,0-7.5,1.5-10.3,4.4
	c-2.9,2.9-4.3,6.4-4.3,10.5c0,4.2,1.4,7.7,4.3,10.6c2.8,2.9,6.3,4.4,10.3,4.4c2.3,0,4.3-0.5,6.2-1.4c1.9-0.9,3.6-2.3,5.1-4.2v4.9
	h3.6v-28.4H554.6z M566.4,346.7h3.6v-10.4c0-3.7,0.2-6.3,0.5-7.7c0.6-2.2,1.7-4,3.4-5.4c1.8-1.5,3.7-2.2,5.9-2.2
	c1.9,0,3.5,0.5,4.7,1.4c1.2,1,2,2.4,2.4,4.2c0.3,1.1,0.4,3.3,0.4,6.5v13.5h3.6v-14.6c0-3.9-0.4-6.7-1.2-8.5c-0.8-1.8-2-3.3-3.6-4.4
	s-3.5-1.6-5.6-1.6c-2.1,0-4,0.5-5.8,1.4c-1.8,1-3.4,2.4-4.8,4.4v-5.1h-3.6V346.7z M598.9,346.7h3.7v-12.8l14.3,12.8h5.1l-16.5-14.8
	l15.6-13.5h-5.4l-13.1,11.4v-22.4h-3.7V346.7z M423.6,397.7l2.2-15.8l7.8,15.8h0.6l7.7-15.7l2.2,15.7h2.1l-3.2-21.9h-0.4l-8.8,18
	l-8.9-18h-0.4l-3.1,21.9H423.6z M451.7,387.9c0.4-1.5,1.1-2.6,1.9-3.4c1.1-1,2.5-1.5,4.1-1.5c1,0,1.9,0.2,2.8,0.6
	c0.9,0.4,1.6,0.9,2.1,1.6c0.5,0.7,0.9,1.6,1.2,2.7H451.7z M463.8,392.3c-0.6,1.1-1.2,1.8-1.8,2.3c-0.5,0.5-1.2,0.9-2,1.1
	c-0.8,0.3-1.6,0.4-2.4,0.4c-1.7,0-3.2-0.6-4.3-1.8c-1.2-1.2-1.8-2.7-1.8-4.6h14.6c0-2.2-0.6-4.1-1.8-5.5c-1.6-2.1-3.9-3.1-6.6-3.1
	c-2.7,0-4.8,1-6.4,3.1c-1.3,1.6-1.9,3.4-1.9,5.5c0,2.2,0.7,4.1,2.2,5.9c1.5,1.7,3.5,2.6,6.2,2.6c1.2,0,2.3-0.2,3.2-0.5
	c0.9-0.4,1.8-0.9,2.6-1.6c0.8-0.7,1.4-1.6,2-2.7L463.8,392.3 M470,397.7h2.1v-6.9c0-2,0.2-3.5,0.6-4.5c0.4-1,1-1.8,1.9-2.3
	c0.8-0.6,1.7-0.9,2.7-0.9c0.8,0,1.6,0.2,2.2,0.6c0.6,0.4,1,1,1.3,1.7c0.2,0.7,0.4,2,0.4,4v8.3h2.1v-6.3c0-2.3,0.2-4,0.6-5
	c0.4-1,1-1.8,1.8-2.4c0.8-0.6,1.8-0.9,2.8-0.9c0.8,0,1.5,0.2,2.1,0.6c0.6,0.4,1,0.9,1.3,1.6c0.2,0.6,0.4,1.8,0.4,3.6v8.8h2.1v-8.8
	c0-2-0.2-3.5-0.6-4.6c-0.4-1-1.1-1.8-1.9-2.4c-0.9-0.6-1.8-0.8-3-0.8c-1.2,0-2.3,0.3-3.4,1c-1,0.7-1.9,1.6-2.6,2.9
	c-0.3-1-0.7-1.7-1.2-2.2c-0.4-0.5-1-0.9-1.7-1.2c-0.7-0.3-1.5-0.5-2.2-0.5c-1.2,0-2.3,0.3-3.3,1c-0.8,0.5-1.5,1.2-2.2,2.3v-2.8H470
	V397.7z M507.1,396.1c-1.8,0-3.3-0.6-4.6-1.9c-1.2-1.3-1.9-2.8-1.9-4.7c0-1.2,0.3-2.3,0.8-3.3c0.6-1,1.3-1.8,2.4-2.3
	c1-0.6,2.1-0.9,3.2-0.9c1.1,0,2.2,0.3,3.2,0.9c1,0.6,1.8,1.4,2.4,2.4c0.6,1,0.9,2.1,0.9,3.3c0,1.2-0.3,2.2-0.9,3.3
	c-0.6,1-1.4,1.8-2.3,2.4C509.3,395.8,508.2,396.1,507.1,396.1 M500.8,397.7v-3c0.8,1.1,1.8,2,2.8,2.5c1.1,0.6,2.3,0.8,3.6,0.8
	c2.3,0,4.3-0.8,5.9-2.5c1.6-1.7,2.5-3.7,2.5-6c0-2.4-0.8-4.4-2.4-6.1c-1.6-1.7-3.6-2.5-5.9-2.5c-1.3,0-2.5,0.3-3.6,0.8
	c-1.1,0.5-2.1,1.3-2.9,2.4v-9h-2.1v22.5H500.8z M521,387.9c0.4-1.5,1.1-2.6,1.9-3.4c1.1-1,2.5-1.5,4.1-1.5c1,0,1.9,0.2,2.8,0.6
	c0.9,0.4,1.6,0.9,2.1,1.6c0.5,0.7,0.9,1.6,1.2,2.7H521z M533,392.3c-0.6,1.1-1.2,1.8-1.8,2.3c-0.5,0.5-1.2,0.9-2,1.1
	c-0.8,0.3-1.6,0.4-2.4,0.4c-1.7,0-3.2-0.6-4.3-1.8c-1.2-1.2-1.8-2.7-1.8-4.6h14.6c0-2.2-0.6-4.1-1.8-5.5c-1.6-2.1-3.9-3.1-6.6-3.1
	c-2.7,0-4.8,1-6.4,3.1c-1.3,1.6-1.9,3.4-1.9,5.5c0,2.2,0.7,4.1,2.2,5.9c1.5,1.7,3.6,2.6,6.2,2.6c1.2,0,2.3-0.2,3.2-0.5
	c0.9-0.4,1.8-0.9,2.6-1.6c0.8-0.7,1.4-1.6,2-2.7L533,392.3 M538.4,397.7h2.1v-5.5c0-2.8,0.1-4.7,0.4-5.6c0.3-1.2,0.8-2.1,1.5-2.7
	c0.6-0.6,1.3-0.9,2-0.9c0.3,0,0.7,0.1,1.1,0.3l1.1-1.8c-0.7-0.4-1.3-0.5-1.8-0.5c-0.8,0-1.5,0.2-2.2,0.7c-0.7,0.5-1.4,1.2-2,2.1
	v-2.4h-2.1V397.7z M557.2,397.7h2.2v-10.8h8.8v-2.1h-8.8v-6.9h8.8v-2.1h-11V397.7z M574.1,377.9h1.5c3.2,0,5.4,0.2,6.8,0.6
	c1.8,0.6,3.3,1.6,4.3,3.1c1,1.5,1.5,3.3,1.5,5.4c0,2-0.5,3.7-1.4,5.1c-0.9,1.4-2.2,2.4-3.9,2.9c-1.2,0.4-3.3,0.6-6.3,0.6h-2.5V377.9
	z M578.9,397.7c2.7,0,4.9-0.4,6.4-1.2c1.5-0.8,2.7-2,3.7-3.7c1-1.7,1.4-3.6,1.4-5.8c0-2.5-0.6-4.7-1.8-6.6c-1.2-1.8-2.9-3.1-5-3.9
	c-1.5-0.5-3.9-0.8-7.1-0.8H572v21.9H578.9z M594.4,397.7h2.2v-21.9h-2.2V397.7z M622,379.8c-1.1-1.5-2.4-2.6-4.1-3.4
	c-1.6-0.8-3.5-1.2-5.5-1.2c-3.4,0-6.2,1.1-8.5,3.3c-2.3,2.2-3.4,4.9-3.4,8.1c0,3,0.9,5.7,2.8,7.8c2.2,2.6,5.2,3.8,9.1,3.8
	c2,0,3.8-0.4,5.5-1.1c1.6-0.8,3-1.8,4.1-3.2l-1.7-1.3c-2.1,2.4-4.6,3.6-7.7,3.6c-2.8,0-5.1-0.9-6.9-2.7c-1.8-1.8-2.7-4-2.7-6.7
	c0-1.8,0.4-3.4,1.2-4.8c0.8-1.4,2-2.5,3.5-3.4c1.5-0.8,3.1-1.3,4.9-1.3c1.6,0,3.1,0.3,4.4,1c1.3,0.6,2.5,1.6,3.4,2.8L622,379.8
	 M157.6,230.3H22v180.8h135.6V230.3z"/>
<path class="st0" d="M622,365.6H179.2V362H622V365.6z M117.7,313.9l10.5-18.4c2.4-4.1,4.2-8.3,8.1-8.3v-1.3h-13.8v1.3
	c2,0,5,0.4,5,2.9c0,1.4-1.4,3.9-2.1,5.1l-9.1,15.9l-8.9-17c-0.5-1-2-3.6-2-4.7c0-2.3,2.3-2.3,4.5-2.3v-1.3H88v1.3
	c3.4,0,4.3,1.3,7.3,7.1l11.4,21.6v8.7c0,6.5,0,7.7-7.4,7.7v1.3h25.7v-1.3c-7.4,0-7.4-1.2-7.4-7.7V313.9z M96.5,328.1h-1.2
	c-1.5-7.5-7.3-13.4-14.8-13.4c-9.1,0-15.1,8.5-15.1,21.2c0,15.9,5.8,22.1,15,22.1c6.7,0,11.2-3.6,15.4-8.7v4.1
	c-5.1,5.6-10.5,7.9-17.8,7.9c-15,0-24.8-10.2-24.8-24c0-14.3,11.4-25.8,24.9-25.8c3.7,0,6.8,0.8,10.2,2.1c1,0.5,2.8,1.3,4,1.3
	c1.8,0,2.7-1.8,2.9-3.5h1.2V328.1z M82.8,285.5H83v-22c0-3.9-1.9-5.9-6.5-5.9v-1.3H92v1.3c-4.6,0-6.5,2-6.5,5.9V305h-1.1l-30.8-39.5
	h-0.2v31.2c0,4,1.9,5.9,6.5,5.9v1.3H44.5v-1.3c4.6,0,6.5-1.9,6.5-5.9V262c-2.2-3-3.3-4.4-6.6-4.4v-1.3h16.2L82.8,285.5z
	 M110.6,381.5c0,3.3,0.7,4.5,3.9,4.5c5.6,0,9.4-4.2,9.4-9.9c0-2.9-0.7-10.8-11.2-10.8h-2.1V381.5z M110.6,362.6
	c8.4,0,11.7-3.4,11.7-9.4c0-2.2-0.9-9.3-9.8-9.3h-1.9V362.6z M100,350.1c0-5.8,0-7.7-6.5-7.7v-1.3h24c16.1,0,16.1,10.4,16.1,11.8
	c0,6.6-5.4,9.3-10.5,10.5v0.1c6.5,1.3,12.9,4.2,12.9,12.2c0,4.9-3.6,13-20,13H93.5v-1.3c6.5,0,6.5-1.9,6.5-7.7V350.1z M148.2,240.6
	h-117v161h117V240.6z M27.9,236.8h123.5v167.8H27.9V236.8z"/>
</svg>
